<svg width="24" height="24" viewBox="0 0 24 24" xmlns="http://www.w3.org/2000/svg">
  <path fill="currentColor" d="M8.6 3.2 5.4 20.4l1.9.4 3.2-17.2z"/>
  <path fill="currentColor" d="M2.3 7.5h7.1v1.9H2.3zM1.4 14.6h7.1v1.9H1.4z"/>
  <path fill="currentColor" d="M14.5 7.5c-2.4 0-3.9 1.2-4.5 3.6.9-1.2 1.9-1.6 3-1.4.6.1 1.1.6 1.6 1.2.9 1 1.9 2.1 4.1 2.1 2.4 0 3.9-1.2 4.5-3.6-.9 1.2-1.9 1.6-3 1.4-.6-.1-1.1-.6-1.6-1.2-.9-1-1.9-2.1-4.1-2.1zm-4.5 5.4c-2.4 0-3.9 1.2-4.5 3.6.9-1.2 1.9-1.6 3-1.4.6.1 1.1.6 1.6 1.2.9 1 1.9 2.1 4.1 2.1 2.4 0 3.9-1.2 4.5-3.6-.9 1.2-1.9 1.6-3 1.4-.6-.1-1.1-.6-1.6-1.2-.9-1-1.9-2.1-4.1-2.1z" opacity=".55"/>
</svg>
